<?xml version="1.0" encoding="UTF-8"?>
<svg width="500px" height="500px" viewBox="0 0 500 500" version="1.1" xmlns="http://www.w3.org/2000/svg" xmlns:xlink="http://www.w3.org/1999/xlink">
    <!-- Generator: (null) (null) ((null)) - http://www.bohemiancoding.com/sketch -->
    <title>BeatportLogoCompact</title>
    <desc>Created with (null).</desc>
    <defs></defs>
    <g id="Icons" stroke="none" stroke-width="1" fill="none" fill-rule="evenodd">
        <g id="BeatportLogoCompact" fill="#94D500">
            <g id="Beatport-Logo-Icon" transform="translate(27.000000, 112.000000)">
                <path d="M385,161.999479 C385,72.672062 312.335585,0 223.003218,0 C133.680507,0 61,72.672062 61,161.999479 C61,203.330508 76.6026701,242.691859 104.914693,272.861386 L104.934003,272.848512 C108.728465,276.874763 115.071877,277.071087 119.107716,273.276563 L136.570606,256.84006 C140.593571,253.051973 140.79311,246.740639 137.027614,242.691859 L137.053361,242.672549 C116.44934,220.726101 105.104577,192.062798 105.104577,161.999479 C105.104577,96.984053 157.99853,44.0892195 223.003218,44.0892195 C288.014344,44.0892195 340.92117,96.984053 340.92117,161.999479 C340.92117,192.062798 329.579625,220.726101 308.969167,242.672549 L309.004569,242.71117 C305.248729,246.75995 305.461141,253.064847 309.47767,256.84006 L326.937341,273.276563 C330.982835,277.071087 337.339121,276.874763 341.136801,272.835638 L341.120709,272.829201 C369.41664,242.672549 385,203.311197 385,161.999479" id="Fill-18"></path>
                <path d="M447,160.936308 C447,138.818858 443.727924,117.014194 437.279168,96.0769436 L437.285528,96.0769436 C437.279168,96.0640453 437.253729,96.0414732 437.253729,96.0221256 C437.253729,96.0027781 437.253729,95.9834306 437.228291,95.9576339 C435.546145,90.7241274 430.051347,87.8187736 424.864995,89.4568643 L402.243472,96.5864286 C397.009423,98.2374176 394.083952,103.861099 395.70568,109.152648 L395.673882,109.165547 C400.818895,125.849565 403.448639,143.26879 403.448639,160.936308 C403.448639,192.140647 395.104687,222.738763 379.351661,249.444801 L379.383459,249.473823 C376.607442,254.223641 378.140134,260.366481 382.808168,263.210568 L403.143372,275.563965 C407.840026,278.42095 413.913558,276.882821 416.746813,272.123329 C436.544621,238.57149 447,200.124727 447,160.936308" id="Fill-20"></path>
                <path d="M67.6534468,249.507047 C51.8992315,222.796632 43.5769099,192.173679 43.5769099,160.970135 C43.5769099,143.291137 46.1941322,125.889533 51.3331737,109.200766 L51.342714,109.200766 L51.342714,109.187864 L51.342714,109.181413 C52.9582048,103.878681 50.035693,98.2566241 44.8139688,96.6019395 L22.1843774,89.450993 C16.9912741,87.8221125 11.4801609,90.7444208 9.80742831,95.9794169 L9.77562731,95.9665149 C3.30730397,116.951656 0,138.814135 0,160.970135 C0,200.156807 10.4752493,238.620964 30.2681915,272.185579 L30.3063527,272.163 C33.1366417,276.885141 39.1851919,278.410805 43.866299,275.57236 L64.1807776,263.208996 C68.8491644,260.370551 70.3851527,254.258217 67.6375463,249.519949 L67.6534468,249.507047 Z" id="Fill-22"></path>
            </g>
            <g id="Beatport-Logo-Icon" transform="translate(27.000000, 112.000000)">
                <path d="M385,161.999479 C385,72.672062 312.335585,0 223.003218,0 C133.680507,0 61,72.672062 61,161.999479 C61,203.330508 76.6026701,242.691859 104.914693,272.861386 L104.934003,272.848512 C108.728465,276.874763 115.071877,277.071087 119.107716,273.276563 L136.570606,256.84006 C140.593571,253.051973 140.79311,246.740639 137.027614,242.691859 L137.053361,242.672549 C116.44934,220.726101 105.104577,192.062798 105.104577,161.999479 C105.104577,96.984053 157.99853,44.0892195 223.003218,44.0892195 C288.014344,44.0892195 340.92117,96.984053 340.92117,161.999479 C340.92117,192.062798 329.579625,220.726101 308.969167,242.672549 L309.004569,242.71117 C305.248729,246.75995 305.461141,253.064847 309.47767,256.84006 L326.937341,273.276563 C330.982835,277.071087 337.339121,276.874763 341.136801,272.835638 L341.120709,272.829201 C369.41664,242.672549 385,203.311197 385,161.999479" id="Fill-18"></path>
                <path d="M447,160.936308 C447,138.818858 443.727924,117.014194 437.279168,96.0769436 L437.285528,96.0769436 C437.279168,96.0640453 437.253729,96.0414732 437.253729,96.0221256 C437.253729,96.0027781 437.253729,95.9834306 437.228291,95.9576339 C435.546145,90.7241274 430.051347,87.8187736 424.864995,89.4568643 L402.243472,96.5864286 C397.009423,98.2374176 394.083952,103.861099 395.70568,109.152648 L395.673882,109.165547 C400.818895,125.849565 403.448639,143.26879 403.448639,160.936308 C403.448639,192.140647 395.104687,222.738763 379.351661,249.444801 L379.383459,249.473823 C376.607442,254.223641 378.140134,260.366481 382.808168,263.210568 L403.143372,275.563965 C407.840026,278.42095 413.913558,276.882821 416.746813,272.123329 C436.544621,238.57149 447,200.124727 447,160.936308" id="Fill-20"></path>
                <path d="M67.6534468,249.507047 C51.8992315,222.796632 43.5769099,192.173679 43.5769099,160.970135 C43.5769099,143.291137 46.1941322,125.889533 51.3331737,109.200766 L51.342714,109.200766 L51.342714,109.187864 L51.342714,109.181413 C52.9582048,103.878681 50.035693,98.2566241 44.8139688,96.6019395 L22.1843774,89.450993 C16.9912741,87.8221125 11.4801609,90.7444208 9.80742831,95.9794169 L9.77562731,95.9665149 C3.30730397,116.951656 0,138.814135 0,160.970135 C0,200.156807 10.4752493,238.620964 30.2681915,272.185579 L30.3063527,272.163 C33.1366417,276.885141 39.1851919,278.410805 43.866299,275.57236 L64.1807776,263.208996 C68.8491644,260.370551 70.3851527,254.258217 67.6375463,249.519949 L67.6534468,249.507047 Z" id="Fill-22"></path>
            </g>
        </g>
    </g>
</svg>